# File created by Blade
# Date/Time:  Wed Jan 21 14:37:15 2015
# Frame Rate: 120.000 fps
#------------------------------------------------------
:FULLY-SPECIFIED
:DEGREES
883
root 18.876344 35.523094 -21.930709 -172.402726 -2.913502 -178.299244
Spine -17.331317 -1.310533 0.402329
Head 7.928131 -1.905439 3.807628
LeftShoulder -14.411451 -36.035670 23.960125
LeftArm -6.339543 2.836296 -9.366376
LeftForeArm 22.990138 -0.000000 -1.723539
LeftHand -4.941431 0.000000 -4.620059
LeftHandThumb1 -26.253704 0.000000 33.147579
RightShoulder -11.632379 1.201131 -12.791747
RightArm -1.093201 38.642649 12.155893
RightForeArm -40.109507 -0.000000 6.355050
RightHand -4.122509 0.000000 10.202491
RightHandThumb1 -24.326973 -0.000000 -32.862282
LeftUpLeg -0.229860 12.083931 2.240070
LeftLeg -5.991288 -0.000000 0.000000
LeftFoot -20.145439 29.117496 -11.780058
LeftToeBase 27.130078 -0.000000 -0.000000
RightUpLeg -0.682915 -9.418939 2.291426
RightLeg -3.182671 -0.000000 0.000000
RightFoot -20.930296 -26.299925 14.670973
RightToeBase 23.556036 -0.000000 -0.000000
884
root 18.872609 35.522709 -21.929705 -172.384153 -2.885234 -178.303156
Spine -17.332755 -1.286802 0.435223
Head 7.845415 -1.872892 3.763116
LeftShoulder -14.355722 -36.026714 23.887105
LeftArm -6.293685 2.816036 -9.405057
LeftForeArm 22.997587 0.000000 -1.723920
LeftHand -4.991984 0.000000 -4.707382
LeftHandThumb1 -26.253704 0.000000 33.147579
RightShoulder -11.642557 1.190746 -12.791634
RightArm -1.049680 38.627187 12.173053
RightForeArm -40.004213 -0.000000 6.361142
RightHand -4.194383 -0.000000 10.125956
RightHandThumb1 -24.326973 -0.000000 -32.862282
LeftUpLeg -0.237499 12.094228 2.223407
LeftLeg -6.010624 -0.000000 0.000000
LeftFoot -20.132619 29.152556 -11.768400
LeftToeBase 26.975304 -0.000000 -0.000000
RightUpLeg -0.707679 -9.411902 2.281263
RightLeg -3.178545 -0.000000 0.000000
RightFoot -20.920909 -26.272616 14.669969
RightToeBase 23.552316 -0.000000 -0.000000
885
root 18.869860 35.521638 -21.929843 -172.374898 -2.861511 -178.295931
Spine -17.321774 -1.277061 0.485971
Head 7.762348 -1.817948 3.719414
LeftShoulder -14.318057 -36.044873 23.844716
LeftArm -6.282044 2.833549 -9.451661
LeftForeArm 22.944832 -0.000000 -1.730970
LeftHand -4.914255 -0.000000 -4.777459
LeftHandThumb1 -26.253704 0.000000 33.147579
RightShoulder -11.642645 1.172871 -12.778259
RightArm -1.005433 38.694905 12.172719
RightForeArm -39.937679 -0.000000 6.382975
RightHand -4.269320 -0.000000 10.111962
RightHandThumb1 -24.326973 -0.000000 -32.862282
LeftUpLeg -0.234137 12.083968 2.224033
LeftLeg -6.022081 -0.000000 0.000000
LeftFoot -20.071538 29.182533 -11.692413
LeftToeBase 26.944671 -0.000000 -0.000000
RightUpLeg -0.710390 -9.416439 2.284006
RightLeg -3.194576 -0.000000 0.000000
RightFoot -20.903626 -26.257645 14.647223
RightToeBase 23.481543 -0.000000 -0.000000
886
root 18.866655 35.521564 -21.929875 -172.371920 -2.826550 -178.300161
Spine -17.301271 -1.260752 0.523661
Head 7.681666 -1.769290 3.668263
LeftShoulder -14.283053 -36.086277 23.802431
LeftArm -6.261978 2.894747 -9.505420
LeftForeArm 22.884818 -0.000000 -1.761645
LeftHand -5.042853 -0.000000 -4.718478
LeftHandThumb1 -26.253704 0.000000 33.147579
RightShoulder -11.685189 1.132932 -12.741960
RightArm -0.864605 38.780118 12.210804
RightForeArm -39.855031 -0.000000 6.364960
RightHand -4.323583 -0.000000 10.023436
RightHandThumb1 -24.326973 -0.000000 -32.862282
LeftUpLeg -0.219481 12.086988 2.213778
LeftLeg -6.041749 -0.000000 0.000000
LeftFoot -20.148524 29.188506 -11.786411
LeftToeBase 27.123908 -0.000000 -0.000000
RightUpLeg -0.711665 -9.391531 2.271656
RightLeg -3.202162 -0.000000 0.000000
RightFoot -20.895878 -26.263591 14.632626
RightToeBase 23.515872 -0.000000 -0.000000
887
root 18.863302 35.520883 -21.928988 -172.355077 -2.799213 -178.306028
Spine -17.298385 -1.258215 0.557561
Head 7.618097 -1.705373 3.632417
LeftShoulder -14.260844 -36.124583 23.765241
LeftArm -6.247148 2.852149 -9.516975
LeftForeArm 22.905349 -0.000000 -1.764732
LeftHand -4.935947 -0.000000 -4.845212
LeftHandThumb1 -26.253704 0.000000 33.147579
RightShoulder -11.681046 1.137504 -12.732631
RightArm -0.831061 38.827998 12.211772
RightForeArm -39.845148 -0.000000 6.372651
RightHand -4.337806 0.000000 9.984034
RightHandThumb1 -24.326973 -0.000000 -32.862282
LeftUpLeg -0.225748 12.093971 2.198290
LeftLeg -6.052855 -0.000000 0.000000
LeftFoot -20.149612 29.198989 -11.786332
LeftToeBase 27.085976 -0.000000 -0.000000
RightUpLeg -0.730468 -9.367196 2.260391
RightLeg -3.205974 -0.000000 0.000000
RightFoot -20.892632 -26.262446 14.630892
RightToeBase 23.491258 -0.000000 -0.000000
888
root 18.859469 35.520132 -21.929451 -172.343232 -2.778112 -178.312518
Spine -17.292832 -1.266073 0.596063
Head 7.557883 -1.648113 3.587484
LeftShoulder -14.272818 -36.115374 23.755341
LeftArm -6.201096 2.844229 -9.583226
LeftForeArm 22.846652 -0.000000 -1.776485
LeftHand -5.014887 -0.000000 -4.863602
LeftHandThumb1 -26.253704 0.000000 33.147579
RightShoulder -11.681593 1.115062 -12.733008
RightArm -0.767123 38.877134 12.245944
RightForeArm -39.879963 -0.000000 6.350065
RightHand -4.307516 0.000000 9.891752
RightHandThumb1 -24.326973 -0.000000 -32.862282
LeftUpLeg -0.225364 12.114385 2.181862
LeftLeg -6.072649 -0.000000 0.000000
LeftFoot -20.212553 29.209684 -11.821261
LeftToeBase 27.318311 -0.000000 -0.000000
RightUpLeg -0.735552 -9.371131 2.250178
RightLeg -3.223409 -0.000000 0.000000
RightFoot -20.880525 -26.262214 14.603474
RightToeBase 23.510360 -0.000000 -0.000000
889
root 18.857112 35.519460 -21.929088 -172.324925 -2.759313 -178.312064
Spine -17.293191 -1.275417 0.640294
Head 7.495989 -1.586165 3.549504
LeftShoulder -14.286085 -36.115353 23.735355
LeftArm -6.132407 2.868706 -9.634339
LeftForeArm 22.712872 0.000000 -1.826615
LeftHand -5.019955 -0.000000 -4.905658
LeftHandThumb1 -26.253704 0.000000 33.147579
RightShoulder -11.682943 1.146109 -12.751527
RightArm -0.724216 38.874796 12.277377
RightForeArm -39.885897 0.000000 6.342735
RightHand -4.312538 -0.000000 9.840562
RightHandThumb1 -24.326973 -0.000000 -32.862282
LeftUpLeg -0.234513 12.095772 2.175664
LeftLeg -6.078692 -0.000000 0.000000
LeftFoot -20.146576 29.238407 -11.766161
LeftToeBase 27.103794 -0.000000 -0.000000
RightUpLeg -0.756570 -9.364453 2.247593
RightLeg -3.221561 -0.000000 0.000000
RightFoot -20.876330 -26.252056 14.569452
RightToeBase 23.583837 -0.000000 -0.000000
890
root 18.853729 35.518912 -21.929880 -172.314331 -2.754147 -178.316327
Spine -17.283224 -1.307769 0.683330
Head 7.430322 -1.520046 3.514866
LeftShoulder -14.302123 -36.146087 23.728163
LeftArm -6.106002 2.839693 -9.659993
LeftForeArm 22.667077 -0.000000 -1.843105
LeftHand -4.983242 -0.000000 -4.946038
LeftHandThumb1 -26.253704 0.000000 33.147579
RightShoulder -11.682630 1.146512 -12.756608
RightArm -0.659425 38.890020 12.310229
RightForeArm -39.854362 -0.000000 6.320974
RightHand -4.297209 -0.000000 9.797762
RightHandThumb1 -24.326973 -0.000000 -32.862282
LeftUpLeg -0.235682 12.089428 2.164745
LeftLeg -6.090150 -0.000000 0.000000
LeftFoot -20.148308 29.241686 -11.763599
LeftToeBase 27.102356 -0.000000 -0.000000
RightUpLeg -0.760423 -9.373607 2.240540
RightLeg -3.233781 -0.000000 0.000000
RightFoot -20.871047 -26.252384 14.555291
RightToeBase 23.597457 -0.000000 -0.000000
891
root 18.850101 35.518148 -21.930629 -172.301836 -2.741792 -178.326904
Spine -17.278391 -1.339749 0.715921
Head 7.370116 -1.469062 3.488954
LeftShoulder -14.302244 -36.166895 23.709743
LeftArm -6.097039 2.861653 -9.677930
LeftForeArm 22.633216 -0.000000 -1.818162
LeftHand -5.023740 0.000000 -4.969732
LeftHandThumb1 -26.253704 0.000000 33.147579
RightShoulder -11.670359 1.150130 -12.752991
RightArm -0.599682 38.870848 12.327000
RightForeArm -39.767224 0.000000 6.279771
RightHand -4.294244 -0.000000 9.738267
RightHandThumb1 -24.326973 -0.000000 -32.862282
LeftUpLeg -0.239676 12.092289 2.145380
LeftLeg -6.099294 -0.000000 0.000000
LeftFoot -20.151580 29.247405 -11.767174
LeftToeBase 27.151080 -0.000000 -0.000000
RightUpLeg -0.767369 -9.398860 2.226617
RightLeg -3.243079 -0.000000 0.000000
RightFoot -20.869565 -26.219235 14.554822
RightToeBase 23.525856 -0.000000 -0.000000
892
root 18.847792 35.517481 -21.930459 -172.282283 -2.734384 -178.329303
Spine -17.278418 -1.361918 0.753231
Head 7.310986 -1.440221 3.454197
LeftShoulder -14.286662 -36.185256 23.681673
LeftArm -6.088050 2.841149 -9.688069
LeftForeArm 22.557227 0.000000 -1.814689
LeftHand -5.028046 -0.000000 -4.998653
LeftHandThumb1 -26.253704 0.000000 33.147579
RightShoulder -11.666881 1.167092 -12.745508
RightArm -0.566335 38.868528 12.321454
RightForeArm -39.704030 -0.000000 6.243128
RightHand -4.250308 -0.000000 9.643060
RightHandThumb1 -24.326973 -0.000000 -32.862282
LeftUpLeg -0.259773 12.105456 2.135122
LeftLeg -6.095558 -0.000000 0.000000
LeftFoot -20.148660 29.240761 -11.738569
LeftToeBase 27.123292 -0.000000 -0.000000
RightUpLeg -0.781122 -9.391426 2.224732
RightLeg -3.257238 -0.000000 0.000000
RightFoot -20.866007 -26.231951 14.549929
RightToeBase 23.566085 -0.000000 -0.000000
893
root 18.844819 35.517009 -21.931449 -172.265181 -2.725768 -178.337171
Spine -17.279269 -1.392959 0.786163
Head 7.253592 -1.387766 3.429609
LeftShoulder -14.291216 -36.196398 23.668427
LeftArm -6.080928 2.863025 -9.703930
LeftForeArm 22.459609 0.000000 -1.770512
LeftHand -5.104373 -0.000000 -5.090954
LeftHandThumb1 -26.253704 0.000000 33.147579
RightShoulder -11.675545 1.180449 -12.762655
RightArm -0.498509 38.885270 12.365453
RightForeArm -39.645451 -0.000000 6.221131
RightHand -4.269421 -0.000000 9.617271
RightHandThumb1 -24.326973 -0.000000 -32.862282
LeftUpLeg -0.263438 12.088615 2.119314
LeftLeg -6.113833 -0.000000 0.000000
LeftFoot -20.152194 29.261957 -11.759160
LeftToeBase 27.125321 -0.000000 -0.000000
RightUpLeg -0.784825 -9.384599 2.214098
RightLeg -3.281125 -0.000000 0.000000
RightFoot -20.848600 -26.242896 14.523014
RightToeBase 23.553139 -0.000000 -0.000000
